<svg width="32" height="32" viewBox="0 0 32 32" xmlns="http://www.w3.org/2000/svg">
  <defs>
    <filter id="glow" x="-50%" y="-50%" width="200%" height="200%">
      <feGaussianBlur stdDeviation="1"/>
    </filter>
  </defs>
  <rect x="0" y="0" width="32" height="32" rx="4.8" ry="4.8" fill="#1a1a2e"/>
  <g transform="translate(5.76, 5.76) scale(0.8533333333333334)">
    <g filter="url(#glow)" opacity="0.55">
    <g stroke="#4fc3f7" stroke-linecap="round" fill="none">
      <line x1="12" y1="22" x2="12" y2="5" stroke-width="2.31"/>
      <path d="M12 7 Q9 5 4 3.5" stroke-width="1.89"/>
      <path d="M12 7 Q15 5 20 3.5" stroke-width="1.89"/>
      <circle cx="4" cy="3.5" r="0.8" fill="#4fc3f7" stroke="none" opacity="0.55"/>
      <circle cx="20" cy="3.5" r="0.8" fill="#4fc3f7" stroke="none" opacity="0.55"/>
      <path d="M12 14 Q9.5 12 6 10.5" stroke-width="1.47"/>
      <path d="M12 14 Q14.5 12 18 10.5" stroke-width="1.47"/>
      <circle cx="6" cy="10.5" r="0.6" fill="#4fc3f7" stroke="none" opacity="0.45"/>
      <circle cx="18" cy="10.5" r="0.6" fill="#4fc3f7" stroke="none" opacity="0.45"/>
    </g></g>
    
    <g stroke="#4fc3f7" stroke-linecap="round" fill="none">
      <line x1="12" y1="22" x2="12" y2="5" stroke-width="2.31"/>
      <path d="M12 7 Q9 5 4 3.5" stroke-width="1.89"/>
      <path d="M12 7 Q15 5 20 3.5" stroke-width="1.89"/>
      <circle cx="4" cy="3.5" r="0.8" fill="#4fc3f7" stroke="none" opacity="0.55"/>
      <circle cx="20" cy="3.5" r="0.8" fill="#4fc3f7" stroke="none" opacity="0.55"/>
      <path d="M12 14 Q9.5 12 6 10.5" stroke-width="1.47"/>
      <path d="M12 14 Q14.5 12 18 10.5" stroke-width="1.47"/>
      <circle cx="6" cy="10.5" r="0.6" fill="#4fc3f7" stroke="none" opacity="0.45"/>
      <circle cx="18" cy="10.5" r="0.6" fill="#4fc3f7" stroke="none" opacity="0.45"/>
    </g>
  </g>
</svg>
